<svg width="100" height="100" viewBox="0 0 100 100" xmlns="http://www.w3.org/2000/svg">
  <!-- 地鼠身体 -->
  <ellipse cx="50" cy="60" rx="35" ry="40" fill="#96613d"/>
  
  <!-- 地鼠头部 -->
  <circle cx="50" cy="30" r="25" fill="#b37a5c"/>
  
  <!-- 地鼠耳朵 -->
  <ellipse cx="28" cy="15" rx="8" ry="10" fill="#b37a5c" transform="rotate(-20 28 15)"/>
  <ellipse cx="72" cy="15" rx="8" ry="10" fill="#b37a5c" transform="rotate(20 72 15)"/>
  <ellipse cx="28" cy="15" rx="5" ry="7" fill="#f9c9a9" transform="rotate(-20 28 15)"/>
  <ellipse cx="72" cy="15" rx="5" ry="7" fill="#f9c9a9" transform="rotate(20 72 15)"/>
  
  <!-- 地鼠眼睛 -->
  <circle cx="38" cy="25" r="5" fill="white"/>
  <circle cx="62" cy="25" r="5" fill="white"/>
  <circle cx="38" cy="25" r="2.5" fill="black"/>
  <circle cx="62" cy="25" r="2.5" fill="black"/>
  
  <!-- 地鼠鼻子 -->
  <ellipse cx="50" cy="35" rx="7" ry="5" fill="#f75e56"/>
  
  <!-- 地鼠嘴巴 -->
  <path d="M43 40 Q50 45, 57 40" stroke="#5a3921" stroke-width="2" fill="none"/>
  
  <!-- 地鼠牙齿 -->
  <rect x="47" y="40" width="6" height="4" fill="white"/>
  
  <!-- 地鼠胡须 -->
  <path d="M30 35 Q40 37, 43 35" stroke="#5a3921" stroke-width="1" fill="none"/>
  <path d="M30 38 Q40 38, 45 37" stroke="#5a3921" stroke-width="1" fill="none"/>
  <path d="M70 35 Q60 37, 57 35" stroke="#5a3921" stroke-width="1" fill="none"/>
  <path d="M70 38 Q60 38, 55 37" stroke="#5a3921" stroke-width="1" fill="none"/>
  
  <!-- 地鼠爪子 -->
  <ellipse cx="30" cy="75" rx="10" ry="7" fill="#b37a5c"/>
  <ellipse cx="70" cy="75" rx="10" ry="7" fill="#b37a5c"/>
</svg> 